<svg xmlns="http://www.w3.org/2000/svg" width="512" height="512" viewBox="0 0 512 512">
  <defs>
    <linearGradient id="bg" x1="0" y1="0" x2="1" y2="1">
      <stop offset="0%" stop-color="#0f172a"/>
      <stop offset="100%" stop-color="#1e293b"/>
    </linearGradient>
  </defs>
  <rect width="512" height="512" rx="112" fill="url(#bg)"/>
  <rect x="74" y="74" width="364" height="364" rx="84" fill="#f8fafc" opacity="0.1"/>
  <path d="M143 256c0-61.3 49.7-111 111-111 32.7 0 62.3 14.2 82.8 36.8l-35.2 30.1c-12.4-11.7-29.8-19.3-47.6-19.3-35.1 0-63.4 28.4-63.4 63.4s28.4 63.4 63.4 63.4c17.8 0 35.1-7.6 47.6-19.3l35.2 30.1C316.3 352.8 286.7 367 254 367c-61.3 0-111-49.7-111-111z" fill="#f8fafc"/>
  <circle cx="367" cy="367" r="37" fill="#f59e0b"/>
</svg>
