<svg xmlns="http://www.w3.org/2000/svg" width="192" height="192" viewBox="0 0 192 192">
  <defs>
    <linearGradient id="bg" x1="0" y1="0" x2="1" y2="1">
      <stop offset="0%" stop-color="#0f172a"/>
      <stop offset="100%" stop-color="#1e293b"/>
    </linearGradient>
  </defs>
  <rect width="192" height="192" rx="42" fill="url(#bg)"/>
  <rect x="28" y="28" width="136" height="136" rx="30" fill="#f8fafc" opacity="0.1"/>
  <path d="M54 96c0-23.2 18.8-42 42-42 12.4 0 23.6 5.4 31.3 13.9l-13.3 11.4C110 74.9 103.4 72 96 72c-13.3 0-24 10.7-24 24s10.7 24 24 24c7.4 0 14-2.9 18.7-7.3l13.3 11.4C119.6 132.6 108.4 138 96 138c-23.2 0-42-18.8-42-42z" fill="#f8fafc"/>
  <circle cx="137" cy="137" r="14" fill="#f59e0b"/>
</svg>
